<?xml version="1.0" encoding="UTF-8" standalone="no"?>
<svg
   xmlns:dc="http://purl.org/dc/elements/1.1/"
   xmlns:cc="http://creativecommons.org/ns#"
   xmlns:rdf="http://www.w3.org/1999/02/22-rdf-syntax-ns#"
   xmlns:svg="http://www.w3.org/2000/svg"
   xmlns="http://www.w3.org/2000/svg"
   xmlns:sodipodi="http://sodipodi.sourceforge.net/DTD/sodipodi-0.dtd"
   xmlns:inkscape="http://www.inkscape.org/namespaces/inkscape"
   width="64"
   height="64"
   version="1.1"
   id="svg4"
   sodipodi:docname="pscouchdb-icon.svg"
   inkscape:version="1.0 (4035a4fb49, 2020-05-01)">
  <metadata
     id="metadata10">
    <rdf:RDF>
      <cc:Work
         rdf:about="">
        <dc:format>image/svg+xml</dc:format>
        <dc:type
           rdf:resource="http://purl.org/dc/dcmitype/StillImage" />
        <dc:title />
      </cc:Work>
    </rdf:RDF>
  </metadata>
  <defs
     id="defs8" />
  <sodipodi:namedview
     inkscape:document-rotation="0"
     pagecolor="#ffffff"
     bordercolor="#666666"
     borderopacity="1"
     objecttolerance="10"
     gridtolerance="10"
     guidetolerance="10"
     inkscape:pageopacity="0"
     inkscape:pageshadow="2"
     inkscape:window-width="1920"
     inkscape:window-height="1017"
     id="namedview6"
     showgrid="false"
     inkscape:zoom="8.8056891"
     inkscape:cx="28.976637"
     inkscape:cy="27.272664"
     inkscape:window-x="0"
     inkscape:window-y="0"
     inkscape:window-maximized="1"
     inkscape:current-layer="g1259" />
  <path
     d="m 51.96,38.937 c 0,2.618 -1.44,3.926 -4.057,4.057 H 15.967 c -2.618,0 -4.057,-1.3 -4.057,-4.057 0,-2.618 1.44,-3.926 4.057,-4.057 h 32.065 c 2.618,0.13 3.926,1.44 3.926,4.057 z m -3.926,6.02 H 15.967 c -2.618,0 -4.057,1.3 -4.057,4.057 0,2.618 1.44,3.926 4.057,4.057 h 32.065 c 2.618,0 4.057,-1.3 4.057,-4.057 -0.13,-2.748 -1.44,-4.057 -4.057,-4.057 z m 9.947,-22.12 c -2.618,0 -4.057,1.3 -4.057,3.926 v 22.12 c 0,2.618 1.44,3.926 4.057,4.057 C 61.906,52.8 64,48.883 64,40.9 v -9.947 c 0,-5.366 -2.094,-7.984 -6.02,-8.115 z m -51.96,0 C 2.094,22.97 0,25.587 0,30.953 V 40.9 c 0,7.984 2.0924033,11.955974 6.02,12.04 2.6174011,0.056 4.057,-1.3 4.057,-4.057 V 26.896 c 0,-2.621226 -1.44,-3.926 -4.057,-4.057 z m 51.96,-1.963 c 0,-6.675 -3.534,-9.816 -9.947,-9.947 H 15.967 c -6.544,0.13 -9.947,3.403 -9.947,9.947 3.926,0 6.02,2.094 6.02,6.02 0,3.926 2.094,6.02 6.02,6.02 h 28 c 3.926,0 6.02,-2.094 6.02,-6.02 -0.13,-4.057 2.094,-5.9 5.9,-6.02 z"
     fill="#e42528"
     id="path2"
     style="opacity:1;mix-blend-mode:normal;fill:#3461a8;fill-opacity:1;fill-rule:nonzero"
     sodipodi:nodetypes="ccsscccccsscsccccsscsscccsssssccccccsssccc" />
  <path
     style="opacity:1;fill:#467cd8;fill-opacity:1;fill-rule:nonzero;stroke-width:0.113563"
     d="M 4.9599104,52.758492 C 2.1025425,52.027008 0.55924626,49.023542 0.13539724,43.369326 -0.01237004,41.398085 -0.01120895,30.700965 0.13692571,29.28752 0.3620313,27.139649 0.92415308,25.694385 1.9706234,24.572925 c 1.0104753,-1.082886 2.3851494,-1.64493 4.0232508,-1.64493 1.7243223,0 3.1069947,0.774947 3.6918667,2.069182 L 9.95668,25.596725 9.987609,37.575781 c 0.021052,8.153416 -0.00772,12.165205 -0.090076,12.561936 -0.2516133,1.212014 -1.128724,2.222774 -2.2099817,2.546727 -0.672518,0.201492 -2.080504,0.239715 -2.7276407,0.07405 z"
     id="path1053" />
  <path
     style="opacity:1;fill:#467cd8;fill-opacity:1;fill-rule:nonzero;stroke-width:0.113563"
     d="m 57.048542,52.787101 c -1.27913,-0.251723 -2.231773,-0.96043 -2.736105,-2.035492 L 54.019103,50.126321 V 37.918304 c 0,-11.421792 0.01304,-12.245384 0.202554,-12.788243 0.274987,-0.787712 0.865483,-1.442897 1.645768,-1.826064 0.609424,-0.299264 0.738805,-0.318943 2.0696,-0.314783 1.178858,0.0037 1.535062,0.04719 2.100914,0.256595 1.916389,0.709197 3.054202,2.172464 3.643348,4.685472 0.173053,0.73816 0.204096,1.672224 0.245105,7.375076 0.05135,7.141051 -0.0311,9.059541 -0.486746,11.326069 -0.448813,2.232535 -1.041121,3.567554 -2.09387,4.719429 -1.104555,1.208559 -2.715339,1.74655 -4.297234,1.435246 z"
     id="path1055" />
  <path
     style="opacity:1;fill:#3e6dbf;fill-opacity:1;fill-rule:nonzero;stroke-width:0.113563"
     d="m 14.272072,42.685171 c -0.374758,-0.11943 -0.861958,-0.366683 -1.082666,-0.54945 -1.569592,-1.299764 -1.637228,-4.84146 -0.117932,-6.17542 0.217412,-0.190889 0.678694,-0.479997 1.025072,-0.642462 l 0.629778,-0.29539 h 17.273017 17.273018 l 0.78349,0.398391 c 1.305966,0.664061 1.796189,1.621519 1.802017,3.519531 0.0052,1.700665 -0.469291,2.701476 -1.593112,3.360079 -1.089258,0.638348 -0.296514,0.612347 -18.503988,0.606898 -16.229001,-0.0049 -16.830762,-0.0125 -17.488694,-0.222177 z"
     id="path1057" />
  <path
     style="opacity:1;fill:#3e6dbf;fill-opacity:1;fill-rule:nonzero;stroke-width:0.113563"
     d="m 14.839887,52.858907 c -1.328695,-0.342002 -1.949447,-0.807159 -2.459337,-1.842891 -0.357639,-0.726469 -0.379402,-0.83948 -0.378572,-1.965866 0.001,-1.413454 0.203831,-2.121753 0.810331,-2.830312 0.535637,-0.625771 1.33224,-1.015763 2.343026,-1.147071 1.099618,-0.142848 32.576779,-0.141365 33.677754,0.0016 1.462349,0.189873 2.378662,0.87585 2.880088,2.156112 0.364557,0.930803 0.365808,2.89466 0.0024,3.684543 -0.413975,0.899659 -0.76588,1.271644 -1.584079,1.674467 l -0.763556,0.375919 -16.980096,0.01983 c -13.526105,0.0158 -17.095597,-0.0099 -17.54791,-0.126321 z"
     id="path1059" />
  <g
     style="fill:#000000"
     id="g1259"
     transform="matrix(0.40893584,0,0,0.42422684,19.32563,-24.07897)">
    <path
       d="m 38.591616,108.53834 c -1.027891,-1.02312 -1.88334,-1.8869 -2.588324,-2.57941 -4.108184,-4.06272 -7.871483,-7.848438 -11.940782,-11.719042 -1.863052,-1.770739 -2.456456,-3.490843 -0.21978,-5.239244 2.209629,-1.72755 4.382064,-1.575645 6.409104,0.412528 5.646639,5.535606 11.286516,11.077168 17.026138,16.536828 2.143694,2.0388 1.643273,3.42532 -0.716819,4.93691 -9.059981,5.80071 -18.067553,11.66544 -27.066672,17.54061 -2.02197,1.32097 -3.950957,1.65159 -5.585777,-0.29936 -1.802191,-2.15198 -0.135249,-3.43275 1.734567,-4.63757 6.686363,-4.30844 13.360893,-8.63478 20.006683,-12.99386 0.926455,-0.60613 2.1606,-1.44459 2.941662,-1.95839 z m -5.590849,19.47664 c -1.901937,0 -2.958568,-1.48926 -2.958568,-2.97853 0,-1.48927 1.056631,-2.97854 2.958568,-2.97854 7.141138,0 10.333011,0 16.060799,0 1.901937,0 2.958568,1.48927 2.958568,2.97854 0,1.48927 -1.056631,2.97853 -2.958568,2.97853 -3.592547,0 -10.566316,0 -16.060799,0 z"
       id="path1247-3"
       style="fill:#f2f2f2;stroke-width:1.58675" />
  </g>
</svg>
